<svg width="24" height="24" viewBox="0 0 24 24" fill="none" xmlns="http://www.w3.org/2000/svg">
<g clip-path="url(#clip0)">
<path d="M10.6746 12L0.275067 1.60046C-0.0910731 1.23432 -0.0910731 0.640698 0.275067 0.274605C0.641207 -0.0914881 1.23483 -0.091535 1.60092 0.274605L12.0005 10.6742L22.4 0.274605C22.7662 -0.091535 23.3598 -0.091535 23.7259 0.274605C24.092 0.640745 24.092 1.23437 23.7259 1.60046L13.3264 12L23.7259 22.3996C24.092 22.7657 24.092 23.3593 23.7259 23.7254C23.5428 23.9085 23.3029 24 23.0629 24C22.823 24 22.5831 23.9085 22.4 23.7254L12.0005 13.3259L1.60097 23.7254C1.41792 23.9085 1.17797 24 0.938019 24C0.698066 24 0.45816 23.9085 0.275067 23.7254C-0.0910731 23.3593 -0.0910731 22.7657 0.275067 22.3996L10.6746 12Z" fill="#465F87"/>
</g>
<defs>
<clipPath id="clip0">
<rect width="24" height="24" fill="white" transform="matrix(-1 0 0 1 24 0)"/>
</clipPath>
</defs>
</svg>
