<svg width="74" height="75" viewBox="0 0 74 75" fill="none" xmlns="http://www.w3.org/2000/svg">
<g clip-path="url(#clip0)">
<path d="M64.6386 10.5008H58.3976V4.28588C58.3977 2.33244 56.7927 0.734375 54.8322 0.734375H9.36157C7.40014 0.734375 5.79541 2.33244 5.79541 4.28588V61.1092C5.79541 63.0625 7.40014 64.6607 9.36171 64.6607H15.6027V70.8758C15.6027 72.8291 17.2067 74.4273 19.169 74.4273H49.4813C51.4419 74.4273 54.2165 73.3317 55.6439 71.9937L65.6062 62.6552C67.0354 61.3172 68.2033 58.6234 68.2033 56.6701L68.205 14.0526C68.2049 12.099 66.6 10.5008 64.6386 10.5008ZM15.6024 14.0525V61.9971H9.36157C8.8784 61.9971 8.4701 61.5905 8.4701 61.1094V4.28588C8.4701 3.80472 8.8784 3.39811 9.36157 3.39811H54.8323C55.3146 3.39811 55.7238 3.80472 55.7238 4.28588V10.501H19.1687C17.2064 10.501 15.6024 12.099 15.6024 14.0525ZM63.773 60.7159L53.8106 70.0537C53.6065 70.2447 53.3408 70.4319 53.0474 70.6103V62.441C53.0474 61.831 53.2944 61.2822 53.7018 60.8739C54.1128 60.4682 54.6638 60.2215 55.2763 60.2215H64.1965C64.0582 60.4086 63.9165 60.5809 63.773 60.7159ZM65.5283 56.6698C65.5283 56.9335 65.4801 57.2389 65.4071 57.5576H55.2762C52.5704 57.5629 50.378 59.7462 50.3725 62.4409V71.6559C50.0543 71.72 49.7476 71.7633 49.4811 71.7633H19.1687V71.7635C18.6845 71.7635 18.2773 71.3568 18.2773 70.8757V14.0523C18.2773 13.5712 18.6847 13.1646 19.1687 13.1646H64.6385C65.1216 13.1646 65.5299 13.5712 65.5299 14.0523L65.5283 56.6698Z" fill="white"/>
<path d="M54.8323 22.9316H28.977C28.2379 22.9316 27.6396 23.5274 27.6396 24.2634C27.6396 24.9995 28.238 25.5952 28.977 25.5952H54.8323C55.5706 25.5952 56.1696 24.9995 56.1696 24.2634C56.1696 23.5274 55.5706 22.9316 54.8323 22.9316Z" fill="white"/>
<path d="M54.8323 40.6875H28.977C28.2379 40.6875 27.6396 41.2832 27.6396 42.0193C27.6396 42.7554 28.238 43.3511 28.977 43.3511H54.8323C55.5706 43.3511 56.1696 42.7554 56.1696 42.0193C56.1696 41.2831 55.5706 40.6875 54.8323 40.6875Z" fill="white"/>
<path d="M43.2419 49.5664H28.977C28.2379 49.5664 27.6396 50.1621 27.6396 50.8982C27.6396 51.6343 28.2379 52.23 28.977 52.23H43.2419C43.9802 52.23 44.5784 51.6343 44.5784 50.8982C44.5784 50.1621 43.9802 49.5664 43.2419 49.5664Z" fill="white"/>
<path d="M54.8323 31.8105H28.977C28.2379 31.8105 27.6396 32.4063 27.6396 33.1423C27.6396 33.8784 28.238 34.4741 28.977 34.4741H54.8323C55.5706 34.4741 56.1696 33.8784 56.1696 33.1423C56.1696 32.4063 55.5706 31.8105 54.8323 31.8105Z" fill="white"/>
</g>
<defs>
<clipPath id="clip0">
<rect width="74" height="73.6929" fill="white" transform="translate(0 0.734375)"/>
</clipPath>
</defs>
</svg>
