<svg width="33" height="33" viewBox="0 0 33 33" fill="none" xmlns="http://www.w3.org/2000/svg">
<g clip-path="url(#clip0)">
<path d="M23.9731 14.2854V8.04028C23.9731 7.86152 23.8905 7.69636 23.7737 7.56569L16.772 0.213249C16.6413 0.0757828 16.4555 0 16.2699 0H5.1689C3.11949 0 1.48248 1.67125 1.48248 3.72091V24.7122C1.48248 26.7619 3.11949 28.4057 5.1689 28.4057H13.9315C15.5889 31.1568 18.6016 33 22.0335 33C27.2469 33 31.5043 28.7632 31.5043 23.543C31.5113 18.983 28.2373 15.1727 23.9731 14.2854ZM16.9578 2.41422L21.6553 7.35924H18.6084C17.7005 7.35924 16.9578 6.60972 16.9578 5.70184V2.41422ZM5.1689 27.03C3.88286 27.03 2.85815 25.9983 2.85815 24.7122V3.72091C2.85815 2.42782 3.88286 1.37567 5.1689 1.37567H15.5821V5.70184C15.5821 7.37309 16.9371 8.73491 18.6084 8.73491H22.5974V14.1064C22.3912 14.0996 22.2261 14.079 22.0473 14.079C19.6469 14.079 17.4392 15.0007 15.7747 16.4451H7.0398C6.66139 16.4451 6.35197 16.7545 6.35197 17.1327C6.35197 17.5111 6.66139 17.8205 7.0398 17.8205H14.4955C14.007 18.5084 13.6012 19.1962 13.285 19.9528H7.0398C6.66139 19.9528 6.35197 20.2622 6.35197 20.6406C6.35197 21.0188 6.66139 21.3284 7.0398 21.3284H12.8378C12.6659 22.0163 12.5765 22.7796 12.5765 23.543C12.5765 24.781 12.8172 26.0053 13.2505 27.0371H5.1689V27.03ZM22.0405 31.6314C17.5837 31.6314 13.9589 28.0066 13.9589 23.5498C13.9589 19.093 17.5766 15.4682 22.0405 15.4682C26.5041 15.4682 30.1218 19.093 30.1218 23.5498C30.1218 28.0066 26.4973 31.6314 22.0405 31.6314Z" fill="#384653"/>
<path d="M7.03983 14.3737H14.0071C14.3855 14.3737 14.6949 14.064 14.6949 13.6859C14.6949 13.3075 14.3855 12.998 14.0071 12.998H7.03983C6.66142 12.998 6.35199 13.3075 6.35199 13.6859C6.35199 14.064 6.66142 14.3737 7.03983 14.3737Z" fill="#384653"/>
<path d="M22.5287 18.474C22.398 18.3365 22.2192 18.2539 22.0266 18.2539C21.834 18.2539 21.6553 18.3365 21.5246 18.474L17.494 22.8001C17.2327 23.0753 17.2533 23.5154 17.5285 23.7699C17.8037 24.0313 18.2506 24.0106 18.5119 23.7357L21.3594 20.6888V28.1993C21.3594 28.5777 21.6689 28.8872 22.0473 28.8872C22.4254 28.8872 22.7351 28.5777 22.7351 28.1993V20.6888L25.5617 23.7357C25.6995 23.88 25.8782 23.9557 26.064 23.9557C26.2289 23.9557 26.3941 23.8938 26.5316 23.7699C26.8067 23.5086 26.8274 23.0753 26.566 22.8001L22.5287 18.474Z" fill="#384653"/>
</g>
<defs>
<clipPath id="clip0">
<rect width="33" height="33" fill="white"/>
</clipPath>
</defs>
</svg>
