<svg width="27" height="18" viewBox="0 0 27 18" fill="none" xmlns="http://www.w3.org/2000/svg">
<path d="M23.9636 0H2.30913C1.03587 0 0 1.03587 0 2.30913V15.6909C0 16.9641 1.03587 18 2.30913 18H23.9636C25.2369 18 26.2727 16.9641 26.2727 15.6909V2.30913C26.2727 1.03587 25.2369 0 23.9636 0ZM23.6622 1.53942L23.354 1.79604L14.0525 9.54141C13.5216 9.98343 12.751 9.98343 12.2202 9.54141L2.91868 1.79604L2.61049 1.53942H23.6622ZM1.53942 2.65077L9.11807 8.96151L1.53942 14.0053V2.65077ZM23.9636 16.4606H2.30913C1.9372 16.4606 1.62614 16.1954 1.55486 15.8443L10.3524 9.98928L11.2352 10.7244C11.786 11.183 12.4612 11.4124 13.1364 11.4124C13.8116 11.4124 14.4868 11.183 15.0376 10.7244L15.9205 9.98928L24.7179 15.8442C24.6466 16.1954 24.3355 16.4606 23.9636 16.4606ZM24.7333 14.0053L17.1547 8.96157L24.7333 2.65077V14.0053Z" fill="white"/>
</svg>
