<svg width="59" height="59" viewBox="0 0 59 59" fill="none" xmlns="http://www.w3.org/2000/svg">
<path d="M57.4773 18.5674C55.4555 16.5455 52.1656 16.5456 50.1432 18.5678C49.5211 19.1904 45.5496 23.1652 44.9429 23.7725V10.0745C44.9429 8.68936 44.4035 7.38721 43.424 6.40784L38.5351 1.51879C37.5558 0.539297 36.2535 0 34.8684 0H5.18701C2.3277 0 0.00146484 2.32624 0.00146484 5.18555V53.8145C0.00146484 56.6738 2.3277 59 5.18701 59H39.7573C42.6166 59 44.9429 56.6738 44.9429 53.8145V38.4458L57.4771 25.9009C59.5038 23.8744 59.5042 20.5941 57.4773 18.5674ZM34.5719 3.45703C34.8985 3.45703 35.5278 3.40045 36.0907 3.96326L40.9796 8.8523C41.5281 9.40094 41.486 10.0021 41.486 10.3711H34.5719V3.45703ZM41.4858 53.8145C41.4858 54.7676 40.7105 55.543 39.7573 55.543H5.18701C4.23391 55.543 3.4585 54.7676 3.4585 53.8145V5.18555C3.4585 4.23244 4.23391 3.45703 5.18701 3.45703H31.1147V12.0996C31.1147 13.0542 31.8887 13.8281 32.8433 13.8281H41.4858V27.2325C41.4858 27.2325 36.3863 32.3365 36.386 32.3366L33.9427 34.78C33.753 34.9697 33.6099 35.2011 33.5251 35.4557L31.0805 42.7892C30.8734 43.4103 31.0351 44.0951 31.4981 44.558C31.9617 45.0216 32.6468 45.1825 33.267 44.9756L40.6005 42.5312C40.855 42.4464 41.0864 42.3033 41.2761 42.1136L41.4858 41.9038V53.8145ZM37.6094 36.0023L40.0538 38.4468L39.1201 39.3805L35.4534 40.6027L36.6756 36.936L37.6094 36.0023ZM42.4978 36.0018L40.0534 33.5573C41.3551 32.2546 47.1362 26.4684 48.3623 25.2413L50.8068 27.6857L42.4978 36.0018ZM55.0322 23.4569L53.2503 25.2402L50.8059 22.7958L52.5883 21.0118C53.2627 20.3378 54.359 20.3379 55.0329 21.0118C55.7067 21.686 55.7103 22.7787 55.0322 23.4569Z" fill="#465F87"/>
<path d="M32.8438 17.2852H8.64453C7.68993 17.2852 6.91602 18.0591 6.91602 19.0137C6.91602 19.9683 7.68993 20.7422 8.64453 20.7422H32.8438C33.7984 20.7422 34.5723 19.9683 34.5723 19.0137C34.5723 18.0591 33.7984 17.2852 32.8438 17.2852Z" fill="#465F87"/>
<path d="M25.9297 24.1992H8.64453C7.68993 24.1992 6.91602 24.9731 6.91602 25.9277C6.91602 26.8823 7.68993 27.6562 8.64453 27.6562H25.9297C26.8843 27.6562 27.6582 26.8823 27.6582 25.9277C27.6582 24.9731 26.8843 24.1992 25.9297 24.1992Z" fill="#465F87"/>
<path d="M25.9297 31.1133H8.64453C7.68993 31.1133 6.91602 31.8872 6.91602 32.8418C6.91602 33.7964 7.68993 34.5703 8.64453 34.5703H25.9297C26.8843 34.5703 27.6582 33.7964 27.6582 32.8418C27.6582 31.8872 26.8843 31.1133 25.9297 31.1133Z" fill="#465F87"/>
<path d="M25.9297 38.0273H8.64453C7.68993 38.0273 6.91602 38.8013 6.91602 39.7559C6.91602 40.7105 7.68993 41.4844 8.64453 41.4844H25.9297C26.8843 41.4844 27.6582 40.7105 27.6582 39.7559C27.6582 38.8013 26.8843 38.0273 25.9297 38.0273Z" fill="#465F87"/>
<path d="M32.8438 48.6289H22.4727C21.5181 48.6289 20.7441 49.4028 20.7441 50.3574C20.7441 51.312 21.5181 52.0859 22.4727 52.0859H32.8438C33.7984 52.0859 34.5723 51.312 34.5723 50.3574C34.5723 49.4028 33.7984 48.6289 32.8438 48.6289Z" fill="#465F87"/>
</svg>
