<svg width="25" height="25" viewBox="0 0 25 25" fill="none" xmlns="http://www.w3.org/2000/svg">
<g clip-path="url(#clip0)">
<path d="M19.5312 25H5.46875C4.17708 25 3.125 23.949 3.125 22.6562V11.7188C3.125 10.426 4.17708 9.375 5.46875 9.375H19.5312C20.8229 9.375 21.875 10.426 21.875 11.7188V22.6562C21.875 23.949 20.8229 25 19.5312 25ZM5.46875 10.9375C5.03854 10.9375 4.6875 11.2875 4.6875 11.7188V22.6562C4.6875 23.0875 5.03854 23.4375 5.46875 23.4375H19.5312C19.9615 23.4375 20.3125 23.0875 20.3125 22.6562V11.7188C20.3125 11.2875 19.9615 10.9375 19.5312 10.9375H5.46875Z" fill="#B9B9B9"/>
<path d="M17.9688 10.9375C17.5375 10.9375 17.1875 10.5875 17.1875 10.1562V6.25C17.1875 3.66562 15.0844 1.5625 12.5 1.5625C9.91562 1.5625 7.8125 3.66562 7.8125 6.25V10.1562C7.8125 10.5875 7.4625 10.9375 7.03125 10.9375C6.6 10.9375 6.25 10.5875 6.25 10.1562V6.25C6.25 2.80312 9.05312 0 12.5 0C15.9469 0 18.75 2.80312 18.75 6.25V10.1562C18.75 10.5875 18.4 10.9375 17.9688 10.9375Z" fill="#B9B9B9"/>
<path d="M12.4998 17.7077C11.3509 17.7077 10.4165 16.7733 10.4165 15.6243C10.4165 14.4754 11.3509 13.541 12.4998 13.541C13.6488 13.541 14.5832 14.4754 14.5832 15.6243C14.5832 16.7733 13.6488 17.7077 12.4998 17.7077ZM12.4998 15.1035C12.2134 15.1035 11.979 15.3368 11.979 15.6243C11.979 15.9118 12.2134 16.1452 12.4998 16.1452C12.7863 16.1452 13.0207 15.9118 13.0207 15.6243C13.0207 15.3368 12.7863 15.1035 12.4998 15.1035Z" fill="#B9B9B9"/>
<path d="M12.5 20.8333C12.0687 20.8333 11.7188 20.4833 11.7188 20.0521V17.1875C11.7188 16.7562 12.0687 16.4062 12.5 16.4062C12.9312 16.4062 13.2812 16.7562 13.2812 17.1875V20.0521C13.2812 20.4833 12.9312 20.8333 12.5 20.8333Z" fill="#B9B9B9"/>
</g>
<defs>
<clipPath id="clip0">
<rect width="25" height="25" fill="white"/>
</clipPath>
</defs>
</svg>
