<svg width="20" height="20" viewBox="0 0 20 20" fill="none" xmlns="http://www.w3.org/2000/svg">
<path d="M12.3656 13.6375L12.8848 14.1567L12.3656 13.6375ZM12.3656 13.6375L12.3482 13.6656L12.208 13.8915L12.208 13.8915L11.9641 14.2844L12.371 13.6127M12.3656 13.6375L12.3781 13.6175C12.389 13.6234 12.3971 13.6282 12.4017 13.6309C12.4087 13.6351 12.4139 13.6384 12.4078 13.6345L12.407 13.6341C12.403 13.6315 12.3897 13.6232 12.3749 13.6144C12.3741 13.6139 12.3733 13.6135 12.3724 13.613M12.3724 13.613C12.3748 13.6138 12.3747 13.6136 12.3724 13.6131C12.372 13.613 12.3715 13.6129 12.371 13.6127M12.3724 13.613C12.367 13.6098 12.3606 13.606 12.3534 13.602M12.3724 13.613L12.3681 13.6121M12.371 13.6127C12.3702 13.6126 12.3692 13.6123 12.3681 13.6121M12.371 13.6127L12.3681 13.6121M12.3681 13.6121C12.3631 13.6095 12.3577 13.6067 12.3519 13.6038C12.3602 13.608 12.3661 13.6105 12.3697 13.6119C12.3643 13.6086 12.3589 13.6053 12.3534 13.602M12.3681 13.6121C12.3662 13.6118 12.3639 13.6114 12.3613 13.6111C12.3566 13.6105 12.3522 13.6102 12.3486 13.6102C12.3485 13.6102 12.3483 13.6102 12.3482 13.6102C12.3452 13.6102 12.342 13.6103 12.3387 13.6106L12.3681 13.6121ZM12.3534 13.602C12.3458 13.5977 12.3374 13.5929 12.3281 13.588L12.3289 13.5872C12.3371 13.5921 12.3453 13.597 12.3534 13.602ZM7.8828 6.09465C7.8485 6.12897 7.81094 6.16696 7.77141 6.20694C7.68711 6.29219 7.59388 6.38648 7.50438 6.4734C7.50404 6.47373 7.50371 6.47405 7.50337 6.47438C7.5016 6.4761 7.49983 6.47781 7.49807 6.47952C7.16262 6.82282 6.82938 7.15704 6.46998 7.48654C6.43398 7.51955 6.39771 7.55251 6.36115 7.58543L6.24761 1.6431C6.31373 1.71135 6.38142 1.78013 6.45293 1.85276L6.4557 1.85558C6.52146 1.92237 6.59037 1.99236 6.65979 2.06384C6.6623 2.06642 6.6648 2.069 6.66731 2.07158L7.8828 3.28707L7.88504 3.28931C8.21752 3.62179 8.53412 4.09004 8.53412 4.69086C8.53412 5.29169 8.21752 5.75993 7.88504 6.09241C7.8843 6.09316 7.88355 6.0939 7.8828 6.09465ZM7.8828 6.09465L7.32208 5.53393C7.32283 5.53318 7.32357 5.53244 7.32432 5.53169C7.63747 5.2176 7.73483 4.92286 7.73483 4.69086C7.73483 4.45886 7.63747 4.16412 7.32432 3.85003C7.32358 3.84928 7.32283 3.84854 7.32208 3.84779L6.10346 2.62916L5.95482 2.7733M7.8828 6.09465L7.32208 5.53393C7.25618 5.59983 7.19082 5.66636 7.12903 5.72925L7.12768 5.73063C7.06442 5.79502 7.0048 5.85569 6.94574 5.91476L6.94572 5.91474L6.94301 5.91749L6.79263 5.77061M6.79263 5.77061C6.87908 5.68714 6.96355 5.60168 7.04868 5.51556C7.09149 5.47225 7.13446 5.42878 7.17793 5.3853C7.65284 4.91039 7.65284 4.47133 7.17793 3.99642L5.95482 2.7733M6.79263 5.77061C6.41629 6.15591 6.05786 6.51434 5.66808 6.8638M6.79263 5.77061L6.93868 5.92188C6.90759 5.95339 6.87666 5.98477 6.84585 6.01603C6.54192 6.3244 6.25019 6.62039 5.93851 6.90547L5.84863 6.98768L5.81903 7.01475L5.73528 6.931L5.66808 6.8638M5.95482 2.7733L6.1012 2.62691L6.09896 2.62467L6.09383 2.61953C5.96382 2.48953 5.81782 2.34353 5.67773 2.19488L5.52919 2.33871M5.95482 2.7733C5.88369 2.69995 5.81257 2.62771 5.74199 2.55602C5.6703 2.4832 5.59917 2.41095 5.52919 2.33871M5.52919 2.33871L5.67769 2.19484L5.52919 2.33871ZM5.66808 6.8638L5.72268 6.9247L5.81045 7.0226L5.64568 6.8862C5.64857 6.88041 5.65333 6.8765 5.65875 6.87203C5.66173 6.86959 5.6649 6.86697 5.66808 6.8638ZM12.3387 13.6106L12.3221 13.594C12.3173 13.5987 12.314 13.6021 12.3113 13.6047C12.3087 13.6073 12.3068 13.6091 12.3047 13.6111C12.3011 13.6145 12.2983 13.617 12.2959 13.619C12.2915 13.6228 12.2893 13.6242 12.2893 13.6242L12.2894 13.6241C12.2904 13.6235 12.2968 13.6199 12.3084 13.6163C12.3142 13.6145 12.3209 13.613 12.3281 13.6118C12.3318 13.6113 12.3353 13.6109 12.3387 13.6106ZM18.6652 15.6888C18.743 15.7136 18.8239 15.75 18.9021 15.8002C18.9081 15.8434 18.9109 15.8859 18.9109 15.9274C18.9109 16.1772 18.8101 16.47 18.5272 16.7702L18.378 16.6264C18.6758 16.311 18.772 15.9976 18.6652 15.6888Z" fill="#384653" stroke="white" stroke-width="2"/>
</svg>
