<svg width="62" height="62" viewBox="0 0 62 62" fill="none" xmlns="http://www.w3.org/2000/svg">
<g clip-path="url(#clip0)">
<g filter="url(#filter0_d)">
<path d="M58.9474 32.059C58.9474 31.3483 59.513 30.7827 60.2237 30.7827C60.932 30.7827 61.5 31.359 61.5 32.059V48.2169C61.5 54.2832 56.5656 59.2301 50.4868 59.2301H11.5132C5.44682 59.2301 0.5 54.2957 0.5 48.2169V31.7958C0.5 31.0851 1.06562 30.5195 1.77632 30.5195C2.48702 30.5195 3.05263 31.0851 3.05263 31.7958V48.2169C3.05263 52.8741 6.84174 56.6774 11.5132 56.6774H50.4868C55.144 56.6774 58.9474 52.8883 58.9474 48.2169V32.059Z" fill="#384653" stroke="#384653"/>
<path d="M29.7236 8.33532V7.12821L28.87 7.98177L20.6069 16.2449C20.1179 16.7339 19.3029 16.7339 18.814 16.2449C18.3119 15.7428 18.3119 14.941 18.814 14.4389L30.1034 3.1494L30.1035 3.14947L30.1103 3.1424C30.342 2.90148 30.6578 2.76953 30.9999 2.76953C31.3224 2.76953 31.6573 2.91034 31.8963 3.1494L43.1858 14.4389C43.6879 14.941 43.6879 15.7428 43.1858 16.2449L43.1857 16.2449L43.1792 16.2517C42.9374 16.5027 42.623 16.6248 42.2893 16.6248C41.9753 16.6248 41.6418 16.4938 41.3929 16.2449L33.1297 7.98177L32.2762 7.12821V8.33532V44.3748C32.2762 45.0855 31.7106 45.6511 30.9999 45.6511C30.2892 45.6511 29.7236 45.0855 29.7236 44.3748V8.33532Z" fill="#384653" stroke="#384653"/>
</g>
</g>
<defs>
<filter id="filter0_d" x="-10" y="-2.73047" width="82" height="77.4605" filterUnits="userSpaceOnUse" color-interpolation-filters="sRGB">
<feFlood flood-opacity="0" result="BackgroundImageFix"/>
<feColorMatrix in="SourceAlpha" type="matrix" values="0 0 0 0 0 0 0 0 0 0 0 0 0 0 0 0 0 0 127 0"/>
<feOffset dy="5"/>
<feGaussianBlur stdDeviation="5"/>
<feColorMatrix type="matrix" values="0 0 0 0 0 0 0 0 0 0 0 0 0 0 0 0 0 0 0.25 0"/>
<feBlend mode="normal" in2="BackgroundImageFix" result="effect1_dropShadow"/>
<feBlend mode="normal" in="SourceGraphic" in2="effect1_dropShadow" result="shape"/>
</filter>
<clipPath id="clip0">
<rect width="62" height="62" fill="white"/>
</clipPath>
</defs>
</svg>
