<svg width="74" height="75" viewBox="0 0 74 75" fill="none" xmlns="http://www.w3.org/2000/svg">
<g clip-path="url(#clip0)">
<path d="M53.7577 32.6276V18.6815C53.7577 18.2823 53.5725 17.9135 53.3106 17.6217L37.6097 1.20277C37.3167 0.895794 36.9001 0.726562 36.484 0.726562H11.5907C6.99509 0.726562 3.32422 4.45866 3.32422 9.0358V55.9119C3.32422 60.4891 6.99509 64.1599 11.5907 64.1599H31.2402C34.9568 70.3034 41.7125 74.4195 49.4082 74.4195C61.0989 74.4195 70.6459 64.9583 70.6459 53.3009C70.6617 43.1178 63.3199 34.6089 53.7577 32.6276ZM38.0264 6.11781L48.5602 17.1606H41.7278C39.6919 17.1606 38.0264 15.4869 38.0264 13.4594V6.11781ZM11.5907 61.0879C8.70688 61.0879 6.40906 58.7838 6.40906 55.9119V9.0358C6.40906 6.14817 8.70688 3.7986 11.5907 3.7986H34.9416V13.4594C34.9416 17.1915 37.9801 20.2327 41.7278 20.2327H50.6729V32.2279C50.2105 32.2127 49.8401 32.1666 49.4393 32.1666C44.0566 32.1666 39.1059 34.2249 35.3735 37.4505H15.7861C14.9375 37.4505 14.2437 38.1415 14.2437 38.9859C14.2437 39.831 14.9375 40.5219 15.7861 40.5219H32.5049C31.4096 42.058 30.4995 43.594 29.7904 45.2835H15.7861C14.9375 45.2835 14.2437 45.9745 14.2437 46.8195C14.2437 47.664 14.9375 48.3555 15.7861 48.3555H28.7877C28.4021 49.8916 28.2017 51.5962 28.2017 53.3009C28.2017 56.0654 28.7414 58.7996 29.713 61.1036H11.5907V61.0879ZM49.424 71.3632C39.4299 71.3632 31.3017 63.2688 31.3017 53.3161C31.3017 43.3635 39.4141 35.269 49.424 35.269C59.4334 35.269 67.5458 43.3635 67.5458 53.3161C67.5458 63.2688 59.4182 71.3632 49.424 71.3632Z" fill="#465F87"/>
<path d="M15.7861 32.8279H31.4096C32.2581 32.8279 32.952 32.1364 32.952 31.2919C32.952 30.4468 32.2581 29.7559 31.4096 29.7559H15.7861C14.9375 29.7559 14.2437 30.4468 14.2437 31.2919C14.2437 32.1364 14.9375 32.8279 15.7861 32.8279Z" fill="#465F87"/>
<path d="M50.5189 41.9816C50.2259 41.6746 49.8251 41.4902 49.3932 41.4902C48.9613 41.4902 48.5604 41.6746 48.2674 41.9816L39.2291 51.6425C38.6431 52.257 38.6894 53.2398 39.3065 53.8082C39.9235 54.3918 40.9257 54.3457 41.5117 53.7317L47.897 46.9276V63.6995C47.897 64.5446 48.5909 65.2356 49.4395 65.2356C50.2874 65.2356 50.9819 64.5446 50.9819 63.6995V46.9276L57.3204 53.7317C57.6292 54.0539 58.03 54.2231 58.4467 54.2231C58.8165 54.2231 59.1868 54.0848 59.4951 53.8082C60.1122 53.2246 60.1585 52.257 59.5724 51.6425L50.5189 41.9816Z" fill="#465F87"/>
</g>
<defs>
<clipPath id="clip0">
<rect width="74" height="73.6929" fill="white" transform="translate(0 0.726562)"/>
</clipPath>
</defs>
</svg>
