<svg width="27" height="27" viewBox="0 0 27 27" fill="none" xmlns="http://www.w3.org/2000/svg">
<g clip-path="url(#clip0)">
<path d="M16.6816 10.3176C16.4622 10.0982 16.1056 10.0982 15.8862 10.3176C15.6668 10.537 15.6668 10.8947 15.8862 11.113C16.523 11.7498 16.8751 12.5969 16.8751 13.4991C16.8751 15.3599 15.3608 16.8741 13.5001 16.8741C12.5979 16.8741 11.7507 16.5231 11.114 15.8852C10.8946 15.6659 10.538 15.6659 10.3186 15.8852C10.0992 16.1035 10.0992 16.4613 10.3186 16.6806C11.1668 17.5311 12.2974 17.9992 13.5001 17.9992C15.9818 17.9992 18.0001 15.9809 18.0001 13.4992C18.0001 12.2965 17.5321 11.1658 16.6816 10.3176Z" fill="#B9B9B9"/>
<path d="M14.2841 9.0775C14.0287 9.03252 13.7677 8.99988 13.5 8.99988C11.0183 8.99988 9 11.0181 9 13.4999C9 13.7676 9.03264 14.0286 9.07873 14.284C9.12709 14.5562 9.3645 14.7486 9.63113 14.7486C9.66377 14.7486 9.69636 14.7463 9.73011 14.7396C10.035 14.6856 10.2397 14.3931 10.1857 14.0882C10.1509 13.8969 10.125 13.7024 10.125 13.4999C10.125 11.6391 11.6393 10.1249 13.5 10.1249C13.7025 10.1249 13.8971 10.1508 14.0883 10.1845C14.3876 10.2453 14.6857 10.0337 14.7397 9.72888C14.7937 9.42402 14.589 9.1315 14.2841 9.0775Z" fill="#B9B9B9"/>
<path d="M26.8661 13.1362C26.739 12.9854 23.6959 9.43383 19.4985 7.25922C19.2262 7.11637 18.8831 7.22437 18.7402 7.50112C18.5974 7.77676 18.7054 8.11647 18.9821 8.25938C22.2154 9.93338 24.7983 12.5456 25.6815 13.4996C24.3405 14.952 19.0631 20.2496 13.5 20.2496C11.6123 20.2496 9.70991 19.794 7.84354 18.894C7.56679 18.7579 7.22818 18.876 7.09318 19.1561C6.95708 19.4351 7.0752 19.7715 7.35533 19.9065C9.37468 20.8819 11.4424 21.3746 13.5001 21.3746C20.4312 21.3746 26.6074 14.1701 26.8673 13.863C27.045 13.6537 27.0439 13.3466 26.8661 13.1362Z" fill="#B9B9B9"/>
<path d="M17.1912 6.27288C15.911 5.84199 14.669 5.62488 13.5001 5.62488C6.56892 5.62488 0.392683 12.8294 0.132809 13.1365C-0.0314586 13.33 -0.0449586 13.6113 0.101326 13.8216C0.178951 13.933 2.03857 16.5734 5.26169 18.7143C5.3573 18.7784 5.46419 18.8088 5.57219 18.8088C5.75333 18.8088 5.93221 18.721 6.04021 18.5556C6.21233 18.298 6.14146 17.9481 5.88269 17.7771C3.51571 16.2033 1.89572 14.3031 1.28932 13.5303C2.58421 12.124 7.89645 6.74991 13.5001 6.74991C14.5474 6.74991 15.6691 6.94793 16.8323 7.33827C17.127 7.444 17.4465 7.28089 17.5444 6.985C17.6434 6.69027 17.4859 6.37191 17.1912 6.27288Z" fill="#B9B9B9"/>
<path d="M23.4596 3.54026C23.2402 3.32089 22.8836 3.32089 22.6642 3.54026L3.53929 22.6652C3.31991 22.8846 3.31991 23.2413 3.53929 23.4606C3.64955 23.5697 3.79352 23.6249 3.93754 23.6249C4.08155 23.6249 4.22552 23.5698 4.33468 23.4606L23.4596 4.33565C23.679 4.11628 23.679 3.75964 23.4596 3.54026Z" fill="#B9B9B9"/>
</g>
<defs>
<clipPath id="clip0">
<rect width="27" height="27" fill="white"/>
</clipPath>
</defs>
</svg>
