<svg width="20" height="20" viewBox="0 0 20 20" fill="none" xmlns="http://www.w3.org/2000/svg">
<path d="M10 20C4.49379 20 0 15.5059 0 10C0 4.49375 4.4941 0 10 0C15.5062 0 20 4.4941 20 10C20 15.5063 15.5059 20 10 20ZM7.03332 18.3147C6.46672 17.5907 6.03242 16.7271 5.70621 15.859H3.40285C4.37887 16.957 5.62371 17.8102 7.03332 18.3147ZM2.52254 14.6875H5.32738C4.9816 13.4302 4.77875 12.0361 4.73562 10.5859H1.1918C1.29055 12.0855 1.76523 13.4838 2.52254 14.6875ZM2.52254 5.3125C1.76523 6.51621 1.29055 7.91453 1.1918 9.41406H4.73562C4.77875 7.96391 4.9816 6.56984 5.32738 5.3125H2.52254ZM3.40289 4.14062H5.70625C6.03234 3.27324 6.4666 2.40953 7.03336 1.68527C5.62371 2.18977 4.37887 3.04297 3.40289 4.14062ZM9.41406 1.27211C8.26422 1.66184 7.43934 3.02934 6.96754 4.14062H9.41406V1.27211ZM9.41406 5.3125H6.54582C6.17324 6.54602 5.95406 7.94543 5.90793 9.41406H9.41406V5.3125ZM9.41406 10.5855H5.90793C5.95406 12.0546 6.17324 13.454 6.54582 14.6875H9.41406V10.5855ZM9.41406 15.859H6.96754C7.44012 16.9725 8.26516 18.3385 9.41406 18.7279V15.859ZM16.5971 15.8594H14.2937C13.9677 16.7268 13.5334 17.5905 12.9666 18.3147C14.3763 17.8103 15.6211 16.957 16.5971 15.8594ZM10.5859 18.7279C11.7348 18.3385 12.5598 16.9727 13.0325 15.8594H10.5859V18.7279ZM10.5859 14.6875H13.4542C13.8268 13.454 14.0459 12.0546 14.0921 10.5859H10.5859V14.6875ZM10.5859 9.41406H14.0921C14.0459 7.94543 13.8268 6.54602 13.4542 5.3125H10.5859V9.41406ZM10.5859 1.27211V4.14062H13.0325C12.5598 3.02742 11.7349 1.66152 10.5859 1.27211ZM12.9667 1.68527C13.5333 2.4093 13.9675 3.27285 14.2938 4.14062H16.5971C15.6211 3.04297 14.3763 2.18973 12.9667 1.68527ZM17.4775 5.31211H14.6726C15.0184 6.56984 15.2213 7.96391 15.2644 9.41406H18.8082C18.7095 7.91453 18.2348 6.51621 17.4775 5.31211ZM18.8082 10.5859H15.2644C15.2213 12.0361 15.0184 13.4302 14.6726 14.6875H17.4775C18.2348 13.4838 18.7095 12.0855 18.8082 10.5859Z" fill="#384653"/>
</svg>
